<?xml version="1.0" encoding="utf-8"?>
<!-- Generator: Adobe Illustrator 23.0.1, SVG Export Plug-In . SVG Version: 6.00 Build 0)  -->
<svg version="1.1" id="Layer_1" xmlns="http://www.w3.org/2000/svg" xmlns:xlink="http://www.w3.org/1999/xlink" x="0px" y="0px"
	 viewBox="0 0 21 21" style="enable-background:new 0 0 21 21;" xml:space="preserve">
<style type="text/css">
	.st0{fill:#FFFFFF;stroke:#000000;stroke-width:1.4173;stroke-linecap:round;stroke-linejoin:round;stroke-miterlimit:10;}
</style>
<path d="M17,4.8H4c-0.8,0-1.5,0.7-1.5,1.5v8.5c0,0.8,0.7,1.5,1.5,1.5h13c0.8,0,1.5-0.7,1.5-1.5V6.3C18.5,5.4,17.8,4.8,17,4.8z
	 M15.9,6.2l-4.6,4c-0.5,0.4-1.2,0.4-1.6,0L5.1,6.2L15.9,6.2z M17,14.8l-13,0l0-7.9l4.7,4.5c0.5,0.5,1.1,0.7,1.8,0.7s1.3-0.2,1.8-0.7
	L17,6.8L17,14.8C17,14.8,17,14.8,17,14.8z"/>
</svg>
