<?xml version="1.0" encoding="utf-8"?>
<!-- Generator: Adobe Illustrator 23.0.1, SVG Export Plug-In . SVG Version: 6.00 Build 0)  -->
<svg version="1.1" id="Layer_1" xmlns="http://www.w3.org/2000/svg" xmlns:xlink="http://www.w3.org/1999/xlink" x="0px" y="0px"
	 viewBox="0 0 21 21" style="enable-background:new 0 0 21 21;" xml:space="preserve">
<g>
	<path d="M13.9,17.2H7.1c-1.9,0-3.3-1.5-3.3-3.3V7.1c0-1.9,1.5-3.3,3.3-3.3h6.7c1.9,0,3.3,1.5,3.3,3.3v6.7c0.1,0.9-0.2,1.7-0.9,2.4
		C15.6,16.8,14.8,17.2,13.9,17.2z M7.1,5.2C6,5.2,5.2,6,5.2,7.1v6.8c0,1.1,0.8,1.9,1.9,1.9h6.8c0.5,0,1-0.2,1.3-0.6
		c0.3-0.4,0.5-0.9,0.5-1.4l0-6.7c0-1.1-0.8-1.9-1.9-1.9H7.1z"/>
</g>
<g>
	<path d="M10.5,14C8.6,14,7,12.4,7,10.5C7,8.6,8.6,7,10.5,7S14,8.6,14,10.5C14,12.4,12.4,14,10.5,14z M10.5,8.4
		c-1.2,0-2.1,0.9-2.1,2.1c0,1.2,0.9,2.1,2.1,2.1c1.2,0,2.1-0.9,2.1-2.1C12.6,9.3,11.7,8.4,10.5,8.4z"/>
</g>
<circle cx="14" cy="7" r="0.8"/>
</svg>
